 http://www.shotpix.com/images/25512880988867106185.jpg


BearCity 2 The Proposal 2012 720p PPVRip XviD NOGRP



Ok from checkin the source it could do with a deblock running over it as it looks like the file has been ripped to a low bitrate so its upto you what u do with it.

  http://www.imdb.com/title/tt2005156/



Plot: BearCity is a hirsute “Sex and the City,” following the funny, romantic, and occasionally dramatic adventures of a group of bears and cubs in New York City. The sequel, BearCity 2 follows our familiar characters and a few new ones as they head to Provincetown, MA for Bear Week!



General

Complete name                            : BearCity 2 The Proposal 2012 720p PPVRip XviD NOGRP.avi

Format                                   : AVI

Format/Info                              : Audio Video Interleave

Format profile                           : OpenDML

File size                                : 1.02 GiB

Duration                                 : 1h 53mn

Overall bit rate                         : 1 294 Kbps

Writing application                      : Lavf52.13.0



Video

ID                                       : 0

Format                                   : MPEG-4 Visual

Codec ID                                 : MP42

Codec ID/Info                            : Microsoft MPEG-4 v2 (pre-standard)

Codec ID/Hint                            : Microsoft

Duration                                 : 1h 53mn

Bit rate                                 : 1 150 Kbps

Width                                    : 960 pixels

Height                                   : 720 pixels

Display aspect ratio                     : 4:3

Frame rate                               : 25.000 fps

Compression mode                         : Lossy

Bits/(Pixel*Frame)                       : 0.067

Stream size                              : 932 MiB (89%)



Audio

ID                                       : 1

Format                                   : MPEG Audio

Format version                           : Version 1

Format profile                           : Layer 3

Mode                                     : Joint stereo

Mode extension                           : MS Stereo

Codec ID                                 : 55

Codec ID/Hint                            : MP3

Duration                                 : 1h 52mn

Bit rate mode                            : Constant

Bit rate                                 : 128 Kbps

Channel(s)                               : 2 channels

Sampling rate                            : 44.1 KHz

Compression mode                         : Lossy

Stream size                              : 103 MiB (10%)

Alignment                                : Aligned on interleaves

Interleave, duration                     : 26 ms (0.66 video frame)

Writing library                          : LAME3.98 (bpJ%‰Âá(


 
http://www.shotpix.com/images/00711058498137505392.png 
http://www.shotpix.com/images/69131176352517665082.png 
http://www.shotpix.com/images/95020826753262719370.png